M48
; DRILL file {KiCad 6.0.6-3a73a75311~116~ubuntu21.10.1} date Tue 26 Jul 2022 12:25:00 PM PDT
; FORMAT={-:-/ absolute / metric / decimal}
; #@! TF.CreationDate,2022-07-26T12:25:00-07:00
; #@! TF.GenerationSoftware,Kicad,Pcbnew,6.0.6-3a73a75311~116~ubuntu21.10.1
; #@! TF.FileFunction,MixedPlating,1,2
FMAT,2
METRIC
; #@! TA.AperFunction,Plated,PTH,ViaDrill
T1C0.300
; #@! TA.AperFunction,Plated,PTH,ViaDrill
T2C0.400
; #@! TA.AperFunction,Plated,PTH,ViaDrill
T3C0.500
; #@! TA.AperFunction,Plated,PTH,ComponentDrill
T4C0.550
; #@! TA.AperFunction,Plated,PTH,ComponentDrill
T5C0.850
; #@! TA.AperFunction,Plated,PTH,ComponentDrill
T6C1.000
; #@! TA.AperFunction,NonPlated,NPTH,ComponentDrill
T7C0.800
; #@! TA.AperFunction,NonPlated,NPTH,ComponentDrill
T8C0.900
; #@! TA.AperFunction,NonPlated,NPTH,ComponentDrill
T9C2.200
%
G90
G05
T1
X93.875Y-61.425
X95.6Y-55.875
T2
X90.375Y-52.95
X98.275Y-59.225
X98.55Y-66.4
X98.575Y-62.975
X98.65Y-57.225
X99.95Y-54.8
X103.251Y-60.954
X103.7Y-56.75
X104.45Y-65.6
X108.2Y-62.325
X113.125Y-57.475
X116.975Y-66.85
X117.475Y-61.875
X117.475Y-63.0
X117.875Y-66.825
X119.3Y-56.9
X119.8Y-65.75
X120.7Y-65.725
X120.95Y-64.6
T3
X104.785Y-69.75
X106.684Y-69.725
T6
X95.985Y-47.5
X98.525Y-47.5
X100.325Y-72.6
X101.065Y-47.5
X102.865Y-72.6
X103.605Y-47.5
X105.405Y-72.6
X107.945Y-72.6
X109.305Y-47.5
X111.845Y-47.5
X114.385Y-47.5
X116.925Y-47.5
T7
X121.625Y-55.7
X121.625Y-60.7
T8
X87.77Y-54.6
X87.77Y-57.6
T9
X88.525Y-47.4
X88.525Y-72.4
X123.525Y-47.4
X123.525Y-72.4
T4
G00X124.05Y-54.325
M15
G01X124.7Y-54.325
M16
G05
G00X124.05Y-62.075
M15
G01X124.7Y-62.075
M16
G05
T5
G00X120.3Y-54.475
M15
G01X120.85Y-54.475
M16
G05
G00X120.3Y-61.925
M15
G01X120.85Y-61.925
M16
G05
T0
M30
