%TF.GenerationSoftware,KiCad,Pcbnew,6.0.6-3a73a75311~116~ubuntu21.10.1*%
%TF.CreationDate,2022-07-26T12:25:36-07:00*%
%TF.ProjectId,SMT32Course,534d5433-3243-46f7-9572-73652e6b6963,0.1*%
%TF.SameCoordinates,Original*%
%TF.FileFunction,Soldermask,Top*%
%TF.FilePolarity,Negative*%
%FSLAX46Y46*%
G04 Gerber Fmt 4.6, Leading zero omitted, Abs format (unit mm)*
G04 Created by KiCad (PCBNEW 6.0.6-3a73a75311~116~ubuntu21.10.1) date 2022-07-26 12:25:36*
%MOMM*%
%LPD*%
G01*
G04 APERTURE LIST*
G04 Aperture macros list*
%AMRoundRect*
0 Rectangle with rounded corners*
0 $1 Rounding radius*
0 $2 $3 $4 $5 $6 $7 $8 $9 X,Y pos of 4 corners*
0 Add a 4 corners polygon primitive as box body*
4,1,4,$2,$3,$4,$5,$6,$7,$8,$9,$2,$3,0*
0 Add four circle primitives for the rounded corners*
1,1,$1+$1,$2,$3*
1,1,$1+$1,$4,$5*
1,1,$1+$1,$6,$7*
1,1,$1+$1,$8,$9*
0 Add four rect primitives between the rounded corners*
20,1,$1+$1,$2,$3,$4,$5,0*
20,1,$1+$1,$4,$5,$6,$7,0*
20,1,$1+$1,$6,$7,$8,$9,0*
20,1,$1+$1,$8,$9,$2,$3,0*%
G04 Aperture macros list end*
%ADD10R,0.800000X1.000000*%
%ADD11C,0.900000*%
%ADD12R,1.500000X0.700000*%
%ADD13C,2.200000*%
%ADD14R,1.200000X1.400000*%
%ADD15RoundRect,0.075000X-0.075000X-0.662500X0.075000X-0.662500X0.075000X0.662500X-0.075000X0.662500X0*%
%ADD16RoundRect,0.075000X-0.662500X-0.075000X0.662500X-0.075000X0.662500X0.075000X-0.662500X0.075000X0*%
%ADD17R,1.500000X2.000000*%
%ADD18R,3.800000X2.000000*%
%ADD19RoundRect,0.135000X-0.135000X-0.185000X0.135000X-0.185000X0.135000X0.185000X-0.135000X0.185000X0*%
%ADD20RoundRect,0.135000X0.135000X0.185000X-0.135000X0.185000X-0.135000X-0.185000X0.135000X-0.185000X0*%
%ADD21RoundRect,0.135000X-0.185000X0.135000X-0.185000X-0.135000X0.185000X-0.135000X0.185000X0.135000X0*%
%ADD22RoundRect,0.135000X0.185000X-0.135000X0.185000X0.135000X-0.185000X0.135000X-0.185000X-0.135000X0*%
%ADD23O,1.700000X1.700000*%
%ADD24R,1.700000X1.700000*%
%ADD25O,0.800000X0.800000*%
%ADD26R,1.300000X0.450000*%
%ADD27O,2.000000X1.450000*%
%ADD28O,1.800000X1.150000*%
%ADD29RoundRect,0.218750X-0.256250X0.218750X-0.256250X-0.218750X0.256250X-0.218750X0.256250X0.218750X0*%
%ADD30RoundRect,0.140000X0.170000X-0.140000X0.170000X0.140000X-0.170000X0.140000X-0.170000X-0.140000X0*%
%ADD31RoundRect,0.140000X-0.140000X-0.170000X0.140000X-0.170000X0.140000X0.170000X-0.140000X0.170000X0*%
%ADD32RoundRect,0.140000X0.140000X0.170000X-0.140000X0.170000X-0.140000X-0.170000X0.140000X-0.170000X0*%
%ADD33RoundRect,0.140000X-0.170000X0.140000X-0.170000X-0.140000X0.170000X-0.140000X0.170000X0.140000X0*%
%ADD34RoundRect,0.225000X-0.225000X-0.250000X0.225000X-0.250000X0.225000X0.250000X-0.225000X0.250000X0*%
%ADD35RoundRect,0.250000X0.475000X-0.250000X0.475000X0.250000X-0.475000X0.250000X-0.475000X-0.250000X0*%
%ADD36RoundRect,0.250000X-0.250000X-0.475000X0.250000X-0.475000X0.250000X0.475000X-0.250000X0.475000X0*%
G04 APERTURE END LIST*
D10*
%TO.C,SW1*%
X88880000Y-59750000D03*
X86670000Y-52450000D03*
X86670000Y-59750000D03*
X88880000Y-52450000D03*
D11*
X87770000Y-57600000D03*
X87770000Y-54600000D03*
D12*
X89530000Y-53850000D03*
X89530000Y-56850000D03*
X89530000Y-58350000D03*
%TD*%
D13*
%TO.C,H4*%
X123525000Y-47400000D03*
%TD*%
%TO.C,H3*%
X123525000Y-72400000D03*
%TD*%
%TO.C,H2*%
X88525000Y-72400000D03*
%TD*%
%TO.C,H1*%
X88525000Y-47400000D03*
%TD*%
D14*
%TO.C,Y1*%
X95595000Y-57500000D03*
X95595000Y-59700000D03*
X93895000Y-59700000D03*
X93895000Y-57500000D03*
%TD*%
D15*
%TO.C,U2*%
X103195000Y-55337500D03*
X103695000Y-55337500D03*
X104195000Y-55337500D03*
X104695000Y-55337500D03*
X105195000Y-55337500D03*
X105695000Y-55337500D03*
X106195000Y-55337500D03*
X106695000Y-55337500D03*
X107195000Y-55337500D03*
X107695000Y-55337500D03*
X108195000Y-55337500D03*
X108695000Y-55337500D03*
D16*
X110107500Y-56750000D03*
X110107500Y-57250000D03*
X110107500Y-57750000D03*
X110107500Y-58250000D03*
X110107500Y-58750000D03*
X110107500Y-59250000D03*
X110107500Y-59750000D03*
X110107500Y-60250000D03*
X110107500Y-60750000D03*
X110107500Y-61250000D03*
X110107500Y-61750000D03*
X110107500Y-62250000D03*
D15*
X108695000Y-63662500D03*
X108195000Y-63662500D03*
X107695000Y-63662500D03*
X107195000Y-63662500D03*
X106695000Y-63662500D03*
X106195000Y-63662500D03*
X105695000Y-63662500D03*
X105195000Y-63662500D03*
X104695000Y-63662500D03*
X104195000Y-63662500D03*
X103695000Y-63662500D03*
X103195000Y-63662500D03*
D16*
X101782500Y-62250000D03*
X101782500Y-61750000D03*
X101782500Y-61250000D03*
X101782500Y-60750000D03*
X101782500Y-60250000D03*
X101782500Y-59750000D03*
X101782500Y-59250000D03*
X101782500Y-58750000D03*
X101782500Y-58250000D03*
X101782500Y-57750000D03*
X101782500Y-57250000D03*
X101782500Y-56750000D03*
%TD*%
D17*
%TO.C,U1*%
X112825000Y-64950000D03*
X115125000Y-64950000D03*
D18*
X115125000Y-71250000D03*
D17*
X117425000Y-64950000D03*
%TD*%
D19*
%TO.C,R5*%
X104715000Y-68500000D03*
X105735000Y-68500000D03*
%TD*%
D20*
%TO.C,R4*%
X103735000Y-68500000D03*
X102715000Y-68500000D03*
%TD*%
D21*
%TO.C,R3*%
X115500000Y-58135000D03*
X115500000Y-57115000D03*
%TD*%
D22*
%TO.C,R2*%
X92600000Y-52535000D03*
X92600000Y-51515000D03*
%TD*%
D20*
%TO.C,R1*%
X123035000Y-64600000D03*
X122015000Y-64600000D03*
%TD*%
D23*
%TO.C,J4*%
X107945000Y-72600000D03*
X105405000Y-72600000D03*
X102865000Y-72600000D03*
D24*
X100325000Y-72600000D03*
%TD*%
%TO.C,J3*%
X116925000Y-47500000D03*
D23*
X114385000Y-47500000D03*
X111845000Y-47500000D03*
X109305000Y-47500000D03*
%TD*%
D24*
%TO.C,J2*%
X103605000Y-47500000D03*
D23*
X101065000Y-47500000D03*
X98525000Y-47500000D03*
X95985000Y-47500000D03*
%TD*%
D25*
%TO.C,J1*%
X121625000Y-60700000D03*
X121625000Y-55700000D03*
D26*
X120525000Y-59500000D03*
X120525000Y-58850000D03*
X120525000Y-58200000D03*
X120525000Y-57550000D03*
X120525000Y-56900000D03*
D27*
X120575000Y-61925000D03*
X120575000Y-54475000D03*
D28*
X124375000Y-62075000D03*
X124375000Y-54325000D03*
%TD*%
D29*
%TO.C,FB1*%
X100945000Y-65487500D03*
X100945000Y-63912500D03*
%TD*%
%TO.C,D1*%
X123025000Y-67412500D03*
X123025000Y-68987500D03*
%TD*%
D30*
%TO.C,C13*%
X97345000Y-59220000D03*
X97345000Y-60180000D03*
%TD*%
%TO.C,C12*%
X97345000Y-57220000D03*
X97345000Y-58180000D03*
%TD*%
D31*
%TO.C,C11*%
X103580000Y-65600000D03*
X102620000Y-65600000D03*
%TD*%
D32*
%TO.C,C10*%
X98565000Y-65500000D03*
X99525000Y-65500000D03*
%TD*%
%TO.C,C9*%
X98565000Y-63900000D03*
X99525000Y-63900000D03*
%TD*%
D30*
%TO.C,C8*%
X99945000Y-60020000D03*
X99945000Y-60980000D03*
%TD*%
D32*
%TO.C,C7*%
X108245000Y-65400000D03*
X109205000Y-65400000D03*
%TD*%
D33*
%TO.C,C6*%
X112145000Y-56520000D03*
X112145000Y-57480000D03*
%TD*%
D31*
%TO.C,C5*%
X103875000Y-53300000D03*
X102915000Y-53300000D03*
%TD*%
D30*
%TO.C,C4*%
X99945000Y-55720000D03*
X99945000Y-56680000D03*
%TD*%
D34*
%TO.C,C3*%
X104220000Y-51500000D03*
X102670000Y-51500000D03*
%TD*%
D35*
%TO.C,C2*%
X120325000Y-68950000D03*
X120325000Y-67050000D03*
%TD*%
D36*
%TO.C,C1*%
X114275000Y-62300000D03*
X116175000Y-62300000D03*
%TD*%
M02*
